<svg width="530" height="509" viewBox="0 0 530 509" fill="none" xmlns="http://www.w3.org/2000/svg">
<g filter="url(#filter0_if_3_7)">
<path d="M525.5 219.5C525.5 357.571 324.571 504.5 186.5 504.5C48.4288 504.5 4 333.071 4 195C4 56.9288 39.5 4 254 3.99998C392.071 3.99998 525.5 81.4288 525.5 219.5Z" fill="#1E1E1E" fill-opacity="0.1"/>
<path d="M525 219.5C525 288.308 474.912 359.43 407.464 413.386C340.028 467.334 255.385 504 186.5 504C117.726 504 72.2426 461.326 43.9255 401.313C15.6025 341.289 4.5 263.995 4.5 195C4.5 125.969 13.386 78.4355 48.8873 48.1035C84.4219 17.743 146.747 4.49999 254 4.49998C322.95 4.49998 390.717 23.8344 441.234 60.3784C491.739 96.9142 525 150.647 525 219.5Z" stroke="black" stroke-opacity="0.2"/>
</g>
<defs>
<filter id="filter0_if_3_7" x="0" y="-1.52588e-05" width="529.5" height="508.5" filterUnits="userSpaceOnUse" color-interpolation-filters="sRGB">
<feFlood flood-opacity="0" result="BackgroundImageFix"/>
<feBlend mode="normal" in="SourceGraphic" in2="BackgroundImageFix" result="shape"/>
<feColorMatrix in="SourceAlpha" type="matrix" values="0 0 0 0 0 0 0 0 0 0 0 0 0 0 0 0 0 0 127 0" result="hardAlpha"/>
<feOffset dy="4"/>
<feGaussianBlur stdDeviation="2"/>
<feComposite in2="hardAlpha" operator="arithmetic" k2="-1" k3="1"/>
<feColorMatrix type="matrix" values="0 0 0 0 0 0 0 0 0 0 0 0 0 0 0 0 0 0 0.25 0"/>
<feBlend mode="normal" in2="shape" result="effect1_innerShadow_3_7"/>
<feGaussianBlur stdDeviation="2" result="effect2_foregroundBlur_3_7"/>
</filter>
</defs>
</svg>
